<svg width="512" height="512" viewBox="0 0 512 512" fill="none" xmlns="http://www.w3.org/2000/svg">
<path d="M256 512C397.385 512 512 397.385 512 256C512 114.615 397.385 0 256 0C114.615 0 0 114.615 0 256C0 397.385 114.615 512 256 512Z" fill="#FFB54A"/>
<path d="M255.746 217.072C243.96 217.072 232.688 219.312 222.331 223.386C223.141 212.092 227.744 201.445 235.519 193.091C249.659 177.899 272.019 173.082 291.159 181.108L307.599 188L330.025 134.51L313.585 127.618C272.125 110.235 223.69 120.668 193.063 153.576C174.444 173.581 164.189 199.649 164.189 226.978V304.596V308.628C164.189 359.113 205.262 400.186 255.747 400.186C306.231 400.186 347.304 359.114 347.304 308.628C347.303 258.145 306.23 217.072 255.746 217.072ZM255.746 342.186C237.243 342.186 222.189 327.132 222.189 308.628C222.189 290.125 237.243 275.071 255.746 275.071H255.747C274.25 275.071 289.304 290.125 289.304 308.628C289.303 327.133 274.249 342.186 255.746 342.186Z" fill="#F8FFFB"/>
</svg>
