<svg width="512" height="512" viewBox="0 0 512 512" fill="none" xmlns="http://www.w3.org/2000/svg">
<path d="M256 512C397.385 512 512 397.385 512 256C512 114.615 397.385 0 256 0C114.615 0 0 114.615 0 256C0 397.385 114.615 512 256 512Z" fill="#FFB54A"/>
<path d="M322.973 251.38C333.068 237.628 339.048 220.677 339.048 202.349C339.048 156.556 301.793 119.3 256 119.3C210.207 119.3 172.952 156.556 172.952 202.349C172.952 220.677 178.932 237.629 189.027 251.38C173.486 266.606 163.819 287.805 163.819 311.229C163.819 356.59 200.722 393.494 246.084 393.494H265.918C311.279 393.494 348.183 356.591 348.183 311.229C348.182 287.805 338.514 266.606 322.973 251.38ZM256 177.3C269.811 177.3 281.048 188.537 281.048 202.349C281.048 216.16 269.812 227.397 256 227.397C242.188 227.397 230.952 216.161 230.952 202.349C230.952 188.537 242.189 177.3 256 177.3ZM265.917 335.493H246.083C232.703 335.493 221.818 324.608 221.818 311.228C221.818 296.984 233.406 285.396 247.649 285.396H264.35C278.593 285.396 290.181 296.984 290.181 311.228C290.182 324.609 279.297 335.493 265.917 335.493Z" fill="#F8FFFB"/>
</svg>
