<svg width="512" height="512" viewBox="0 0 512 512" fill="none" xmlns="http://www.w3.org/2000/svg">
<path d="M256 512C397.385 512 512 397.385 512 256C512 114.615 397.385 0 256 0C114.615 0 0 114.615 0 256C0 397.385 114.615 512 256 512Z" fill="#FFB54A"/>
<path d="M327.01 144.843C310.967 126.964 284.172 116.29 255.333 116.29C249.489 116.29 243.627 116.827 237.911 117.886L236.15 118.211C218.602 121.453 202.705 129.519 190.175 141.535C177.898 153.317 169.696 168.115 166.455 184.328L165.459 189.313L224.706 193.796L225.911 190.682C229.345 181.812 237.623 175.165 247.514 173.336L249.275 173.011C260.449 170.947 271.924 174.716 279.228 182.856C288.913 193.645 287.946 210.978 277.115 220.707C271.869 225.421 246.045 230.864 237.455 230.506L232.762 230.305V276.223L237.455 276.022C246.102 275.659 271.871 281.108 277.116 285.821C287.946 295.55 288.913 312.883 279.227 323.673C271.924 331.812 260.448 335.582 249.274 333.517L247.515 333.192C237.623 331.363 229.345 324.716 225.911 315.846L224.706 312.732L165.459 317.215L166.455 322.2C169.695 338.413 177.897 353.211 190.176 364.994C202.704 377.01 218.602 385.075 236.15 388.317L237.909 388.642C243.627 389.701 249.489 390.238 255.333 390.238C284.172 390.238 310.967 379.564 327.009 361.686C354.041 331.564 352.767 284.733 324.702 253.264C352.767 221.795 354.042 174.964 327.01 144.843Z" fill="#F8FFFB"/>
</svg>
