<svg width="512" height="512" viewBox="0 0 512 512" fill="none" xmlns="http://www.w3.org/2000/svg">
<path d="M256 512C397.385 512 512 397.385 512 256C512 114.615 397.385 0 256 0C114.615 0 0 114.615 0 256C0 397.385 114.615 512 256 512Z" fill="#FFB54A"/>
<path d="M234.09 177.3L228.62 209.36L251.71 208.27C278.01 207.02 304 214.89 323.02 233.1C359.7 268.22 362.82 326.17 330.12 365.02C311.1 387.62 283.23 400.29 254.32 400.29C247.96 400.29 241.55 399.68 235.17 398.42L233.14 398.02C213.9 394.23 196.48 384.81 182.77 370.79C169.36 357.07 160.44 339.91 156.91 321.08L215.55 316.35C220.1 328.88 231.02 338.49 244.36 341.12L246.39 341.52C261.04 344.41 276.12 339.1 285.74 327.67C298.8 312.16 297.56 289.02 282.91 274.99C275.31 267.71 264.93 263.84 254.43 264.32L158.57 268.82L185.65 119.3H352.728V177.3H234.09Z" fill="#F8FFFB"/>
</svg>
