<svg width="512" height="512" viewBox="0 0 512 512" fill="none" xmlns="http://www.w3.org/2000/svg">
<g clip-path="url(#clip0)">
<path d="M0 256.518C0 198.853 1.7319 105.74 92.7878 88.6307C183.844 71.521 212.431 50.7872 246.459 27.5157C280.487 4.24416 319.283 -18.9962 395.607 24.2211C425.73 45.4668 448.187 56.9223 470.448 128.259C492.709 199.597 512 209.204 512 251.344C512 293.484 491.324 348.473 456.904 372.372C429.946 390.616 411.184 418.673 404.622 450.557C399.583 473.895 389.009 507.718 360.626 511.601C332.243 515.483 319.363 491.245 292.953 489.224C266.543 487.203 234.411 526.591 161.445 487.216C88.4781 447.841 80.7758 393.391 53.4261 369.055C26.0764 344.72 0 300.519 0 256.518Z" fill="#FF9255"/>
<path d="M418.64 78.8001C399.48 94.6801 369.44 101.16 338.64 93.6801C304.4 85.3601 278.92 62.1201 271.64 36.0001C297.56 23.0801 330 18.6401 381.44 47.7601C395.36 57.5601 407.44 65.0801 418.64 78.8001V78.8001Z" fill="#E1580A"/>
<path d="M368.858 188.925C373.47 169.93 357.487 149.743 333.158 143.837C308.829 137.93 285.368 148.539 280.756 167.534C276.144 186.529 292.128 206.716 316.457 212.623C340.786 218.53 364.247 207.92 368.858 188.925Z" fill="#E1580A"/>
<path d="M398.015 334.336C410.505 321.846 412.724 303.814 402.972 294.062C393.22 284.31 375.189 286.53 362.699 299.02C350.208 311.51 347.989 329.541 357.741 339.293C367.493 349.046 385.524 346.826 398.015 334.336Z" fill="#E1580A"/>
<path d="M167.825 392.597C177.916 387.847 181.518 374.273 175.871 362.277C170.225 350.281 157.468 344.407 147.377 349.157C137.287 353.907 133.685 367.482 139.331 379.477C144.978 391.473 157.735 397.347 167.825 392.597Z" fill="#E1580A"/>
<path d="M254.846 304.209C267.514 298.246 274.289 285.991 269.98 276.836C265.671 267.682 251.909 265.094 239.241 271.057C226.574 277.019 219.798 289.275 224.108 298.429C228.417 307.584 242.179 310.171 254.846 304.209Z" fill="#E1580A"/>
<path d="M160.248 141.524C159.672 141.524 159.152 141.524 158.68 141.492C156.823 141.407 155.077 140.588 153.824 139.215C152.571 137.843 151.915 136.029 152 134.172C152.085 132.316 152.904 130.569 154.277 129.316C155.649 128.063 157.463 127.407 159.32 127.492C170.58 127.944 204.52 122.168 213.672 111.444C214.267 110.74 214.995 110.161 215.814 109.739C216.634 109.317 217.528 109.061 218.447 108.986C219.366 108.91 220.29 109.017 221.167 109.3C222.044 109.583 222.857 110.036 223.559 110.634C224.26 111.232 224.837 111.962 225.255 112.784C225.674 113.605 225.926 114.5 225.997 115.419C226.069 116.338 225.958 117.262 225.672 118.138C225.385 119.014 224.929 119.825 224.328 120.524C211.2 135.968 173.2 141.524 160.248 141.524Z" fill="#E1580A"/>
<path d="M80.4959 291.5C78.8933 291.503 77.339 290.952 76.0959 289.94C62.2439 278.74 60.5759 248.9 61.5359 239.304C61.6106 238.376 61.8694 237.473 62.2974 236.647C62.7253 235.82 63.3138 235.087 64.0283 234.491C64.7428 233.895 65.569 233.447 66.4587 233.174C67.3483 232.901 68.2835 232.808 69.2095 232.9C70.1355 232.993 71.0338 233.269 71.8518 233.713C72.6698 234.157 73.391 234.759 73.9734 235.485C74.5558 236.211 74.9876 237.046 75.2435 237.94C75.4994 238.835 75.5744 239.772 75.4639 240.696C74.4919 250.456 77.4079 272.988 84.9039 279.06C86.0281 279.97 86.8426 281.207 87.2355 282.599C87.6284 283.991 87.5804 285.47 87.098 286.834C86.6157 288.198 85.7227 289.379 84.5419 290.214C83.3611 291.05 81.9504 291.499 80.5039 291.5H80.4959Z" fill="#E1580A"/>
<path d="M439.336 269.252H439.1C437.245 269.189 435.491 268.393 434.222 267.038C432.954 265.682 432.276 263.879 432.336 262.024C432.895 244.768 430.343 227.552 424.8 211.2C424.127 209.47 424.169 207.543 424.916 205.844C425.664 204.144 427.056 202.811 428.786 202.138C430.516 201.465 432.443 201.507 434.143 202.254C435.842 203.002 437.175 204.394 437.848 206.124C444.089 224.233 446.961 243.332 446.32 262.476C446.261 264.29 445.5 266.011 444.197 267.275C442.894 268.539 441.151 269.248 439.336 269.252Z" fill="#E1580A"/>
<path d="M341.392 440.116C341.18 440.116 340.964 440.116 340.748 440.084C339.833 440.002 338.943 439.74 338.129 439.313C337.315 438.886 336.593 438.303 336.004 437.598C335.416 436.892 334.972 436.077 334.699 435.199C334.426 434.322 334.328 433.399 334.412 432.484C334.548 430.968 337.936 395.208 354.22 378.376C354.853 377.693 355.617 377.144 356.466 376.76C357.314 376.376 358.231 376.165 359.162 376.14C360.093 376.115 361.02 376.276 361.888 376.614C362.756 376.951 363.548 377.459 364.218 378.106C364.887 378.754 365.421 379.529 365.787 380.385C366.153 381.242 366.345 382.163 366.351 383.094C366.357 384.026 366.176 384.949 365.821 385.81C365.465 386.671 364.941 387.452 364.28 388.108C353.628 399.124 349.172 424.784 348.356 433.744C348.198 435.483 347.397 437.101 346.108 438.279C344.82 439.458 343.138 440.113 341.392 440.116V440.116Z" fill="#E1580A"/>
<path d="M159 269.252C158.258 269.252 157.52 269.134 156.816 268.9C155.052 268.32 153.591 267.064 152.753 265.407C151.915 263.75 151.769 261.828 152.348 260.064C159.3 238.92 189.016 219.944 204.652 222.596C205.568 222.737 206.446 223.059 207.237 223.542C208.028 224.025 208.715 224.66 209.258 225.411C209.801 226.162 210.19 227.013 210.401 227.915C210.613 228.817 210.643 229.753 210.491 230.667C210.338 231.58 210.006 232.455 209.513 233.24C209.02 234.024 208.376 234.703 207.618 235.237C206.861 235.77 206.005 236.148 205.1 236.349C204.195 236.549 203.26 236.568 202.348 236.404C194.348 235.044 170.836 248.652 165.652 264.436C165.191 265.836 164.3 267.056 163.105 267.92C161.911 268.785 160.474 269.251 159 269.252V269.252Z" fill="#E1580A"/>
</g>
<defs>
<clipPath id="clip0">
<rect width="512" height="512" fill="white"/>
</clipPath>
</defs>
</svg>
