<svg width="512" height="512" viewBox="0 0 512 512" fill="none" xmlns="http://www.w3.org/2000/svg">
<path d="M507.984 256C507.984 397.385 397.385 512 256 512C213.75 512 173.89 501.765 138.765 483.639C101.583 464.451 73.723 431.402 49.932 397.311C32.0803 371.729 14.7657 347.753 7.19511 316.52C2.49274 297.117 0 276.849 0 256C0 114.615 114.615 0 256 0C365.673 0.715796 507.984 114.615 507.984 256Z" fill="#0057FF"/>
<path d="M256 0C249.239 0 242.54 0.267043 235.912 0.781051C337.393 8.65882 422.267 75.7107 456.09 167.468C456.054 167.533 456.016 167.589 455.981 167.656C429.804 217.942 385.235 275.771 330.503 330.503C275.771 385.235 217.931 429.804 167.657 455.981C148.897 465.744 134.093 471.43 122.674 474.575C144.489 487.91 168.458 498.062 193.934 504.406C248.867 475.657 311.158 427.771 369.465 369.463C409.344 329.584 444.341 287.843 471.682 247.866C471.766 250.568 471.824 253.276 471.824 255.999C471.824 390.623 367.907 500.972 235.913 511.218C242.54 511.733 249.239 512 256 512C321.716 512 381.648 487.238 426.976 446.537C443.61 431.601 456.817 413.085 469.082 394.29C483 372.964 495.284 350.869 502.376 325.774C508.646 303.593 512 280.188 512 256C512 191.773 488.348 133.071 449.279 88.1273C428.745 64.506 400.94 47.6963 373.083 32.8724C337.268 13.812 299.402 0 256 0Z" fill="#0057FF"/>
<path d="M211.708 463.261C224.211 450.758 241.169 443.733 258.851 443.733C280.766 443.733 298.531 425.968 298.531 404.053C298.531 391.477 294.908 379.753 288.669 369.843C247.076 406.545 205.252 436.406 167.657 455.981C148.927 465.728 134.142 471.41 122.73 474.559C151.474 491.392 188.04 486.929 211.708 463.261Z" fill="url(#paint0_linear)"/>
<path d="M242.186 1.35529C340.88 11.4537 422.966 77.6092 456.089 167.469C456.053 167.534 456.015 167.59 455.98 167.657C445.034 188.683 430.864 211.029 414.09 233.914H417.341C471.102 233.914 505.073 175.833 478.399 129.157C434.308 52.0011 351.231 0 256 0C255.026 0 254.057 0.0180706 253.087 0.0291137C249.345 0.0983843 245.701 0.555169 242.186 1.35529V1.35529Z" fill="#1FBD98"/>
<path d="M329.871 267.294C351.49 267.294 369.016 249.768 369.016 228.148C369.016 206.529 351.49 189.002 329.871 189.002C308.251 189.002 290.725 206.529 290.725 228.148C290.725 249.768 308.251 267.294 329.871 267.294Z" fill="#00CD5D"/>
<path d="M474.985 325.773C470.612 325.773 466.266 326.034 461.966 326.533C449.98 368.435 427.588 405.938 397.758 436.073C399.784 449.497 416.329 456.077 426.966 446.527C462.478 414.645 489.028 372.984 502.372 325.774H474.985V325.773Z" fill="url(#paint1_linear)"/>
<path d="M158.017 259.73L141.198 242.91C110.115 211.827 59.7213 211.827 28.6389 242.91C9.01118 262.538 0.869376 291.012 7.56453 317.95C23.8311 383.402 65.283 438.897 121.041 473.558C150.026 491.576 187.576 487.394 211.709 463.261C224.211 450.758 241.169 443.733 258.851 443.733C280.766 443.733 298.531 425.968 298.531 404.053C298.531 368.534 269.737 339.738 234.216 339.738H218.612C192.728 339.738 171.744 318.754 171.744 292.87C171.744 280.439 166.807 268.519 158.017 259.73V259.73Z" fill="#00CD5D"/>
<path d="M502.372 325.773H474.985C445.011 325.773 416.265 337.68 395.07 358.875L367.703 386.242C356.861 397.084 364.541 415.624 379.875 415.624C389.638 415.624 397.553 423.538 397.553 433.302C397.553 448.548 415.622 456.712 426.967 446.526C462.479 414.644 489.029 372.983 502.372 325.773Z" fill="#00CD5D"/>
<path d="M417.342 233.914C471.103 233.914 505.074 175.833 478.4 129.157C434.308 52.0011 351.231 0 256 0C255.197 0 254.396 0.00401569 253.595 0.0110431C224.361 0.282102 200.784 24.0108 200.784 53.246C200.784 67.3631 206.392 80.902 216.374 90.884L263.904 138.414C276.876 151.385 297.907 151.385 310.878 138.414C323.85 125.442 344.881 125.442 357.853 138.414C377.031 157.592 387.805 183.603 387.805 210.725C387.805 223.531 398.186 233.913 410.992 233.913H417.342V233.914Z" fill="#00CD5D"/>
<path d="M75.2941 203.043C93.1136 203.043 107.559 188.598 107.559 170.778C107.559 152.959 93.1136 138.513 75.2941 138.513C57.4746 138.513 43.0291 152.959 43.0291 170.778C43.0291 188.598 57.4746 203.043 75.2941 203.043Z" fill="#00CD5D"/>
<defs>
<linearGradient id="paint0_linear" x1="108.424" y1="427.257" x2="282.771" y2="427.257" gradientUnits="userSpaceOnUse">
<stop stop-color="#46CC8D"/>
<stop offset="0.5484" stop-color="#0AB69F"/>
<stop offset="1" stop-color="#01998D"/>
</linearGradient>
<linearGradient id="paint1_linear" x1="381.066" y1="388.409" x2="484.912" y2="388.409" gradientUnits="userSpaceOnUse">
<stop stop-color="#46CC8D"/>
<stop offset="0.5484" stop-color="#0AB69F"/>
<stop offset="1" stop-color="#01998D"/>
</linearGradient>
</defs>
</svg>
