<svg width="512" height="512" viewBox="0 0 512 512" fill="none" xmlns="http://www.w3.org/2000/svg">
<g clip-path="url(#clip0)">
<path d="M256 0C187.62 0 123.332 26.6292 74.9807 74.9807C26.6292 123.333 0 187.621 0 256C0 324.379 26.6292 388.667 74.9807 437.019C123.332 485.371 187.62 512 256 512C274.015 512 291.74 510.133 308.97 506.527V5.47335C291.74 1.86669 274.015 0 256 0Z" fill="#F5AA64"/>
<path d="M512 256C512 187.621 485.371 123.333 437.019 74.9807C401.406 39.3674 357.141 15.5568 308.97 5.47339C260.798 15.5568 216.534 39.3674 180.92 74.9807C132.569 123.333 105.94 187.621 105.94 256C105.94 324.379 132.569 388.667 180.92 437.019C216.534 472.633 260.799 496.443 308.97 506.527C357.142 496.443 401.406 472.633 437.019 437.019C485.371 388.667 512 324.379 512 256Z" fill="#F5AA64"/>
<path d="M127.652 177.089C117.402 187.339 100.675 199.574 85.3547 198.956C76.679 198.609 68.886 195.648 63.1165 189.878C47.1516 173.913 52.6985 142.492 75.5032 119.687C84.0657 111.124 93.843 104.995 103.562 101.527C119.726 95.7532 134.683 100.37 144.652 110.339C160.613 126.3 150.456 154.285 127.652 177.089Z" fill="#B57F5F"/>
<path d="M455.605 291.998C452.891 292.441 450.166 293.441 447.492 292.68C434.412 288.961 422.519 271.755 418.995 249.621C415.859 229.912 420.238 211.813 429.191 202.662C432.348 199.436 436.853 200.055 441.019 199.38C456.998 196.782 470.147 214.288 474.388 240.949C478.633 267.612 471.581 289.404 455.605 291.998Z" fill="#B57F5F"/>
<path d="M298 275.996C298 290.526 293.844 303.196 281.933 309.908C276.187 313.15 269.527 315 262.438 315C240.657 315 223 297.537 223 275.996C223 268.981 224.87 262.399 228.149 256.716C234.94 244.935 247.747 240 262.438 240C284.218 240 298 254.456 298 275.996Z" fill="#B57F5F"/>
<path d="M262.418 237C247.657 237 234.807 244.929 228 256.743C233.763 253.51 240.467 251.644 247.573 251.644C269.436 251.644 287.16 269.129 287.16 290.696C287.16 297.706 285.264 304.315 281.987 310C293.957 303.285 302 290.613 302 276.052C302 254.485 284.281 237 262.418 237V237Z" fill="#B57F5F"/>
<path d="M392.577 83.6408C372.339 65.8838 347.281 61.3304 336.613 73.4661C333.843 76.6231 332.313 80.637 331.925 85.0992C344.365 79.5302 364.533 84.9739 381.403 99.7727C396.382 112.915 404.427 129.817 403.326 142.526C405.807 141.414 408.138 139.79 409.914 137.77C420.582 125.634 412.82 101.397 392.577 83.6408Z" fill="#B57F5F"/>
<path d="M263.966 267H175.824C170.396 267 166 271.251 166 276.5C166 281.744 170.396 286 175.824 286H289C281.044 279.214 272.698 272.869 263.966 267Z" fill="#B57F5F"/>
<path d="M228.205 447.369L248.015 387.492C249.235 383.805 246.056 379.44 240.912 377.738C235.772 376.037 230.613 377.644 229.393 381.331L203.956 458.214C212.395 455.01 220.49 451.397 228.205 447.369Z" fill="#B57F5F"/>
<path d="M435.944 255.032L413.126 318.594C411.721 322.508 414.714 327.161 419.814 328.992C424.909 330.821 430.182 329.136 431.588 325.221L460.886 243.607C452.234 246.977 443.907 250.782 435.944 255.032Z" fill="#B57F5F"/>
<path d="M243 442.197C242.931 427.971 229.12 412.029 208.468 403.902C192.757 397.718 176.92 397.565 166 402.429L193.418 446L243 442.197Z" fill="#B57F5F"/>
<path d="M153.363 414.468C147.284 430.112 162.112 450.551 186.489 460.118C210.866 469.685 235.557 464.76 241.641 449.116C242.574 446.707 243.018 444.196 242.999 441.615C215.227 432.517 189.164 418.994 166.094 402C160.052 404.683 155.529 408.889 153.363 414.468Z" fill="#B57F5F"/>
</g>
<defs>
<clipPath id="clip0">
<rect width="512" height="512" fill="white"/>
</clipPath>
</defs>
</svg>
