<svg width="512" height="512" viewBox="0 0 512 512" fill="none" xmlns="http://www.w3.org/2000/svg">
<path d="M256 512C397.385 512 512 397.385 512 256C512 114.615 397.385 0 256 0C114.615 0 0 114.615 0 256C0 397.385 114.615 512 256 512Z" fill="#E85300"/>
<path d="M339.957 428.043C198.572 428.043 83.957 313.428 83.957 172.043C83.957 122.863 97.853 76.941 121.892 37.936C48.766 83.005 0 163.795 0 256C0 397.385 114.615 512 256 512C348.205 512 428.996 463.234 474.065 390.107C435.059 414.147 389.138 428.043 339.957 428.043Z" fill="#E85300"/>
<path d="M202.32 404.645C213.722 404.645 222.965 395.402 222.965 384C222.965 372.598 213.722 363.355 202.32 363.355C190.918 363.355 181.675 372.598 181.675 384C181.675 395.402 190.918 404.645 202.32 404.645Z" fill="#FFC122"/>
<path d="M305.55 156.906C314.672 156.906 322.066 149.512 322.066 140.39C322.066 131.268 314.672 123.874 305.55 123.874C296.429 123.874 289.034 131.268 289.034 140.39C289.034 149.512 296.429 156.906 305.55 156.906Z" fill="#FFC122"/>
<path d="M152.77 181.68C173.293 181.68 189.93 165.043 189.93 144.52C189.93 123.997 173.293 107.36 152.77 107.36C132.247 107.36 115.61 123.997 115.61 144.52C115.61 165.043 132.247 181.68 152.77 181.68Z" fill="#FFC122"/>
<path d="M371.61 371.61C389.852 371.61 404.64 356.822 404.64 338.58C404.64 320.338 389.852 305.55 371.61 305.55C353.368 305.55 338.58 320.338 338.58 338.58C338.58 356.822 353.368 371.61 371.61 371.61Z" fill="#FFC122"/>
<path d="M222.968 256H214.71V247.742C214.71 243.177 211.016 239.484 206.452 239.484C201.888 239.484 198.194 243.178 198.194 247.742V256H189.936C185.371 256 181.678 259.694 181.678 264.258C181.678 268.822 185.372 272.516 189.936 272.516H198.194V280.774C198.194 285.339 201.888 289.032 206.452 289.032C211.016 289.032 214.71 285.338 214.71 280.774V272.516H222.968C227.533 272.516 231.226 268.822 231.226 264.258C231.226 259.694 227.532 256 222.968 256Z" fill="#FFC122"/>
<path d="M432.839 222.968L435.258 220.549C438.484 217.323 438.484 212.097 435.258 208.872C432.032 205.646 426.806 205.646 423.581 208.872L421.162 211.291L418.743 208.872C415.517 205.646 410.291 205.646 407.066 208.872C403.84 212.098 403.84 217.324 407.066 220.549L409.485 222.968L407.066 225.387C403.84 228.613 403.84 233.839 407.066 237.064C408.679 238.677 410.792 239.483 412.905 239.483C415.018 239.483 417.131 238.677 418.744 237.064L421.163 234.645L423.582 237.064C425.195 238.677 427.308 239.483 429.421 239.483C431.534 239.483 433.647 238.677 435.26 237.064C438.486 233.838 438.486 228.612 435.26 225.387L432.839 222.968Z" fill="#FFC122"/>
<path d="M90.84 297.286C99.9615 297.286 107.356 289.891 107.356 280.77C107.356 271.648 99.9615 264.254 90.84 264.254C81.7184 264.254 74.324 271.648 74.324 280.77C74.324 289.891 81.7184 297.286 90.84 297.286Z" fill="#FFC122"/>
</svg>
