<svg width="512" height="512" viewBox="0 0 512 512" fill="none" xmlns="http://www.w3.org/2000/svg">
<g clip-path="url(#clip0)">
<path d="M256 0C187.62 0 123.332 26.6292 74.9807 74.9807C26.6292 123.333 0 187.621 0 256C0 324.379 26.6292 388.667 74.9807 437.019C123.332 485.371 187.62 512 256 512C274.015 512 291.74 510.133 308.97 506.527V5.47335C291.74 1.86669 274.015 0 256 0Z" fill="#82888B"/>
<path d="M512 256C512 187.621 485.371 123.333 437.019 74.9807C401.406 39.3674 357.141 15.5568 308.97 5.47339C260.798 15.5568 216.534 39.3674 180.92 74.9807C132.569 123.333 105.94 187.621 105.94 256C105.94 324.379 132.569 388.667 180.92 437.019C216.534 472.633 260.799 496.443 308.97 506.527C357.142 496.443 401.406 472.633 437.019 437.019C485.371 388.667 512 324.379 512 256Z" fill="#82888B"/>
<path d="M408.298 351.807C433.901 351.807 454.656 331.052 454.656 305.449C454.656 279.846 433.901 259.091 408.298 259.091C382.695 259.091 361.94 279.846 361.94 305.449C361.94 331.052 382.695 351.807 408.298 351.807Z" fill="#676F72"/>
<path d="M181.657 150.921C198.726 150.921 212.562 137.085 212.562 120.016C212.562 102.947 198.726 89.1106 181.657 89.1106C164.588 89.1106 150.752 102.947 150.752 120.016C150.752 137.085 164.588 150.921 181.657 150.921Z" fill="#676F72"/>
<path d="M313.69 441.433C322.224 441.433 329.143 434.514 329.143 425.98C329.143 417.446 322.224 410.527 313.69 410.527C305.156 410.527 298.237 417.446 298.237 425.98C298.237 434.514 305.156 441.433 313.69 441.433Z" fill="#676F72"/>
<path d="M61.8109 271.453C70.3452 271.453 77.2636 264.534 77.2636 256C77.2636 247.466 70.3452 240.547 61.8109 240.547C53.2766 240.547 46.3582 247.466 46.3582 256C46.3582 264.534 53.2766 271.453 61.8109 271.453Z" fill="#676F72"/>
<path d="M377.392 120.016C385.927 120.016 392.845 113.098 392.845 104.563C392.845 96.029 385.927 89.1106 377.392 89.1106C368.858 89.1106 361.94 96.029 361.94 104.563C361.94 113.098 368.858 120.016 377.392 120.016Z" fill="#676F72"/>
<path d="M181.273 437.367L117.558 332.612C102.478 343.883 92.7163 361.877 92.7163 382.152C92.7163 416.289 120.39 443.963 154.527 443.963C164.249 443.963 173.09 441.366 181.273 437.367C181.039 437.134 181.507 437.6 181.273 437.367V437.367Z" fill="#676F72"/>
<path d="M216.339 382.152C216.339 348.015 188.665 320.341 154.528 320.341C140.666 320.341 127.869 324.905 117.559 332.612C129.73 371.595 151.572 407.664 181.274 437.367C181.508 437.6 181.039 437.134 181.274 437.367C201.826 427.324 216.339 406.568 216.339 382.152V382.152Z" fill="#676F72"/>
</g>
<defs>
<clipPath id="clip0">
<rect width="512" height="512" fill="white"/>
</clipPath>
</defs>
</svg>
