<svg width="512" height="512" viewBox="0 0 512 512" fill="none" xmlns="http://www.w3.org/2000/svg">
<g clip-path="url(#clip0)">
<path d="M512 256C512 306.632 496.986 356.127 468.856 398.226C440.727 440.325 400.745 473.137 353.967 492.513C307.189 511.889 255.716 516.959 206.057 507.081C156.398 497.203 110.783 472.821 74.9808 437.019C39.1785 401.217 14.7969 355.602 4.91908 305.943C-4.95873 256.284 0.110918 204.811 19.4869 158.033C38.863 111.255 71.6751 71.2734 113.774 43.1438C155.873 15.0141 205.368 0 256 0C323.808 0.283597 388.758 27.346 436.706 75.294C484.654 123.242 511.716 188.192 512 256Z" fill="#E8E8E8"/>
<path d="M28.769 229.486C28.2545 229.487 27.7413 229.435 27.2374 229.331C26.2427 229.131 25.2971 228.737 24.4546 228.171C23.6121 227.605 22.8893 226.879 22.3273 226.033C21.7654 225.188 21.3754 224.24 21.1796 223.243C20.9838 222.247 20.9861 221.221 21.1862 220.226C28.1229 186.066 42.5364 153.87 63.39 125.952C64.6191 124.312 66.4489 123.227 68.4769 122.937C70.5048 122.647 72.5648 123.176 74.2036 124.406C75.8424 125.636 76.9258 127.468 77.2155 129.498C77.5053 131.528 76.9775 133.59 75.7484 135.23C56.2674 161.307 42.8034 191.382 36.3252 223.292C35.9698 225.037 35.0241 226.606 33.6477 227.734C32.2712 228.862 30.5481 229.481 28.769 229.486V229.486Z" fill="#CDCDCD"/>
<path d="M102.707 102.656C101.134 102.656 99.5984 102.175 98.3056 101.278C97.0128 100.38 96.0246 99.1092 95.4732 97.6343C94.9218 96.1595 94.8334 94.5512 95.2199 93.0247C95.6064 91.4982 96.4493 90.1262 97.636 89.0923C105.447 82.3001 113.695 76.0277 122.326 70.3154C124.035 69.2204 126.106 68.8427 128.091 69.2638C130.076 69.6848 131.816 70.871 132.935 72.5658C134.053 74.2605 134.461 76.3278 134.069 78.3208C133.677 80.3138 132.517 82.0723 130.84 83.2163C122.776 88.5558 115.069 94.4179 107.77 100.765C106.366 101.988 104.568 102.659 102.707 102.656V102.656Z" fill="#CDCDCD"/>
<path d="M183.187 240.708C204.75 240.708 222.23 223.21 222.23 201.626C222.23 180.041 204.75 162.543 183.187 162.543C161.623 162.543 144.143 180.041 144.143 201.626C144.143 223.21 161.623 240.708 183.187 240.708Z" fill="#CDCDCD"/>
<path d="M504.105 319.083C497.769 343.922 487.773 367.656 474.455 389.486C468.615 388.546 463.065 386.271 458.227 382.833C453.389 379.395 449.389 374.885 446.531 369.646C443.674 364.406 442.033 358.574 441.735 352.593C441.436 346.612 442.488 340.639 444.809 335.127C447.13 329.615 450.66 324.71 455.131 320.784C459.602 316.857 464.896 314.013 470.612 312.466C476.328 310.92 482.314 310.712 488.118 311.858C493.921 313.005 499.388 315.476 504.105 319.083V319.083Z" fill="#CDCDCD"/>
<path d="M203.084 405.065C224.647 405.065 242.127 387.568 242.127 365.983C242.127 344.398 224.647 326.901 203.084 326.901C181.52 326.901 164.04 344.398 164.04 365.983C164.04 387.568 181.52 405.065 203.084 405.065Z" fill="#CDCDCD"/>
<path d="M327.466 419C342.092 419 353.948 407.132 353.948 392.491C353.948 377.851 342.092 365.983 327.466 365.983C312.84 365.983 300.984 377.851 300.984 392.491C300.984 407.132 312.84 419 327.466 419Z" fill="#CDCDCD"/>
<path d="M358.388 241.481C373.014 241.481 384.871 229.613 384.871 214.973C384.871 200.332 373.014 188.464 358.388 188.464C343.763 188.464 331.906 200.332 331.906 214.973C331.906 229.613 343.763 241.481 358.388 241.481Z" fill="#CDCDCD"/>
<path d="M336.263 164.54C343.575 164.54 349.504 158.606 349.504 151.286C349.504 143.966 343.575 138.031 336.263 138.031C328.95 138.031 323.021 143.966 323.021 151.286C323.021 158.606 328.95 164.54 336.263 164.54Z" fill="#CDCDCD"/>
</g>
<defs>
<clipPath id="clip0">
<rect width="512" height="512" fill="white"/>
</clipPath>
</defs>
</svg>
