<svg width="512" height="512" viewBox="0 0 512 512" fill="none" xmlns="http://www.w3.org/2000/svg">
<path d="M256 0L0 256C0 397.29 114.71 512 256 512C326.692 512 384 454.692 384 384C384 313.308 441.308 256 512 256C512 114.71 397.29 0 256 0Z" fill="#0086EA"/>
<path d="M256 512C326.692 512 384 454.692 384 384C384 313.308 441.308 256 512 256C512 114.71 397.29 0 256 0V512Z" fill="#0086EA"/>
<path d="M256 512C291.323 512 320 483.323 320 448V320C320 249.355 377.355 192 448 192C483.323 192 512 220.677 512 256C512 397.29 397.29 512 256 512Z" fill="#2B4DFF"/>
<path d="M0 256C0 114.71 114.71 0 256 0C291.323 0 320 28.677 320 64C320 99.323 291.323 128 256 128C220.677 128 192 156.677 192 192V256C192 308.984 148.984 352 96 352C43.016 352 0 308.984 0 256Z" fill="#2A4CFF"/>
<path d="M256 0C291.323 0 320 28.677 320 64C320 99.323 291.323 128 256 128V0Z" fill="#2A4CFF"/>
</svg>
