<svg width="512" height="512" viewBox="0 0 512 512" fill="none" xmlns="http://www.w3.org/2000/svg">
<path d="M256.113 0C114.793 0 0.22998 114.594 0.22998 255.962C0.22998 397.325 114.793 511.923 256.113 511.923C397.437 511.923 512 397.325 512 255.962C511.839 114.665 397.37 0.156129 256.113 0Z" fill="#FFE282"/>
<mask id="mask0" mask-type="alpha" maskUnits="userSpaceOnUse" x="0" y="0" width="512" height="512">
<path d="M256.113 0C114.793 0 0.22998 114.594 0.22998 255.962C0.22998 397.325 114.793 511.923 256.113 511.923C397.437 511.923 512 397.325 512 255.962C511.839 114.665 397.37 0.156129 256.113 0Z" fill="white"/>
</mask>
<g mask="url(#mask0)">
<path d="M320.082 479.931C178.82 479.988 64.2566 365.484 64.1999 224.178C64.162 139.887 105.632 60.9852 175.069 13.2334C41.0195 57.8816 -31.4634 202.783 13.1709 336.875C57.81 470.97 202.667 543.476 336.717 498.823C359.594 491.206 381.28 480.385 401.126 466.693C375.009 475.46 347.638 479.931 320.082 479.931Z" fill="#FFE282"/>
<path d="M449.937 159.989C419.038 159.956 393.998 134.909 393.965 103.996C393.965 99.5815 390.385 96 385.967 96C381.55 96 377.969 99.5815 377.969 103.996C377.936 134.904 352.897 159.956 321.998 159.989C317.58 159.989 314 163.571 314 167.99C314 172.409 317.58 175.985 321.998 175.985C352.897 176.023 377.936 201.07 377.969 231.979C377.969 236.398 381.55 239.979 385.967 239.979C390.385 239.979 393.965 236.398 393.965 231.979C393.998 201.07 419.038 176.023 449.937 175.985C454.354 175.985 457.935 172.409 457.935 167.99C457.935 163.571 454.354 159.989 449.937 159.989Z" fill="#FFB800"/>
<path d="M391.942 477.989C361.038 477.956 335.998 452.909 335.965 421.996C335.965 417.582 332.385 414 327.967 414C323.55 414 319.974 417.582 319.974 421.996C319.936 452.905 294.897 477.956 263.998 477.989C259.58 477.989 256 481.571 256 485.99C256 490.404 259.58 493.985 263.998 493.985C294.897 494.023 319.936 519.07 319.974 549.979C319.974 554.398 323.55 557.979 327.967 557.979C332.385 557.979 335.965 554.398 335.965 549.979C335.998 519.07 361.038 494.023 391.942 493.985C396.354 493.985 399.935 490.404 399.935 485.99C399.935 481.571 396.354 477.989 391.942 477.989Z" fill="#FFB800"/>
<path d="M128.969 235.997C128.969 253.668 114.648 267.994 96.9824 267.994C79.3169 267.994 65 253.668 65 235.997C65 218.326 79.3169 204 96.9824 204C114.648 204 128.969 218.326 128.969 235.997Z" fill="#FFB800"/>
<path d="M246.987 310.552C246.987 328.223 232.665 342.545 215 342.545C197.339 342.545 183.018 328.223 183.018 310.552C183.018 292.881 197.339 278.555 215 278.555C232.665 278.555 246.987 292.881 246.987 310.552Z" fill="#FFB800"/>
<path d="M173.956 139.997C173.956 157.668 159.634 171.994 141.969 171.994C124.303 171.994 109.981 157.668 109.981 139.997C109.981 122.326 124.303 108 141.969 108C159.634 108 173.956 122.326 173.956 139.997Z" fill="#FFB800"/>
</g>
</svg>
