<svg width="512" height="512" viewBox="0 0 512 512" fill="none" xmlns="http://www.w3.org/2000/svg">
<path d="M256 512C397.385 512 512 397.385 512 256C512 114.615 397.385 0 256 0C114.615 0 0 114.615 0 256C0 397.385 114.615 512 256 512Z" fill="#B9EEFF"/>
<path d="M256 512C291.323 512 320 483.323 320 448V320C320 249.355 377.355 192 448 192C483.323 192 512 220.677 512 256C512 397.29 397.29 512 256 512Z" fill="#82CAFF"/>
<path d="M48.9408 263.867C34.3618 243.699 29.8815 213.297 39.3808 183.058C49.9456 149.443 74.8188 125.555 101.363 120.017C112.542 146.734 114.828 179.397 82.3716 228.8C71.673 242.042 63.371 253.598 48.9408 263.867V263.867Z" fill="#82CAFF"/>
</svg>
