<svg width="512" height="512" viewBox="0 0 512 512" fill="none" xmlns="http://www.w3.org/2000/svg">
<g clip-path="url(#clip0)">
<path d="M256 512C397.385 512 512 397.385 512 256C512 114.615 397.385 0 256 0C114.615 0 0 114.615 0 256C0 397.385 114.615 512 256 512Z" fill="#FF7E20"/>
<path d="M166.352 162.544C192.862 162.544 214.352 141.054 214.352 114.544C214.352 88.0343 192.862 66.5439 166.352 66.5439C139.842 66.5439 118.352 88.0343 118.352 114.544C118.352 141.054 139.842 162.544 166.352 162.544Z" fill="#9C472C"/>
<path d="M380.144 179.552C399.832 179.552 415.792 163.592 415.792 143.904C415.792 124.216 399.832 108.256 380.144 108.256C360.456 108.256 344.496 124.216 344.496 143.904C344.496 163.592 360.456 179.552 380.144 179.552Z" fill="#9C472C"/>
<path d="M250.032 287.376C267.36 287.376 281.408 273.329 281.408 256C281.408 238.672 267.36 224.624 250.032 224.624C232.703 224.624 218.656 238.672 218.656 256C218.656 273.329 232.703 287.376 250.032 287.376Z" fill="#9C472C"/>
<path d="M285.392 359.968C292.673 359.968 298.576 354.065 298.576 346.784C298.576 339.503 292.673 333.6 285.392 333.6C278.111 333.6 272.208 339.503 272.208 346.784C272.208 354.065 278.111 359.968 285.392 359.968Z" fill="#9C472C"/>
<path d="M118.32 259.024C125.601 259.024 131.504 253.121 131.504 245.84C131.504 238.559 125.601 232.656 118.32 232.656C111.038 232.656 105.136 238.559 105.136 245.84C105.136 253.121 111.038 259.024 118.32 259.024Z" fill="#9C472C"/>
<path d="M392.384 39.616C417.344 79.136 432 125.808 432 176C432 317.376 317.392 432 176 432C125.808 432 79.136 417.344 39.616 392.384C84.96 464.176 164.816 512 256 512C397.392 512 512 397.376 512 256C512 164.816 464.176 84.96 392.384 39.616Z" fill="#FF7E20"/>
<path d="M263.744 478.608C273.5 478.608 281.408 470.7 281.408 460.944C281.408 451.188 273.5 443.28 263.744 443.28C253.989 443.28 246.08 451.188 246.08 460.944C246.08 470.7 253.989 478.608 263.744 478.608Z" fill="#9C472C"/>
<path d="M157.648 372.928C172.087 372.928 183.792 361.223 183.792 346.784C183.792 332.345 172.087 320.64 157.648 320.64C143.209 320.64 131.504 332.345 131.504 346.784C131.504 361.223 143.209 372.928 157.648 372.928Z" fill="#9C472C"/>
<path d="M420.32 359.76C434.759 359.76 446.464 348.055 446.464 333.616C446.464 319.177 434.759 307.472 420.32 307.472C405.881 307.472 394.176 319.177 394.176 333.616C394.176 348.055 405.881 359.76 420.32 359.76Z" fill="#9C472C"/>
</g>
<defs>
<clipPath id="clip0">
<rect width="512" height="512" fill="white"/>
</clipPath>
</defs>
</svg>
