<svg width="512" height="512" viewBox="0 0 512 512" fill="none" xmlns="http://www.w3.org/2000/svg">
<path d="M166.002 287C215.631 287 256.002 246.629 256.002 197C256.002 147.372 215.631 107.001 166.002 107.001C116.374 107.001 76.0029 147.372 76.0029 197C76.0029 246.629 116.374 287 166.002 287ZM346.001 287C395.63 287 436.001 246.629 436.001 197C436.001 147.372 395.63 107.001 346.001 107.001C296.373 107.001 256.002 147.372 256.002 197C256.002 246.629 296.373 287 346.001 287ZM435.189 380.599L386.201 368.298L256.002 242L125.802 368.298L77.1029 380.599C69.002 382.399 64.203 390.798 66.303 398.598L81.0029 456.498C82.3959 462.54 87.5989 467.898 95.4018 467.898C97.1938 467.898 93.4158 468.697 161.202 451.699C178.002 487.099 214 511.999 256.001 511.999C298.002 511.999 333.999 487.098 350.799 451.699C413.132 467.332 414.058 467.898 416.588 467.898C423.189 467.898 429.488 463.399 430.987 456.798L445.987 398.898C448.476 390.823 443.072 382.416 435.189 380.599V380.599Z" fill="url(#paint0_linear)"/>
<path d="M256.001 0.00100708C148.601 0.00100708 61.0027 96.2004 61.0027 212C61.0027 272.299 84.7015 328.998 125.801 368.298L163.301 358.7C181.002 325.098 215.503 302 256.001 302C296.5 302 331.001 325.099 348.702 358.7L386.202 368.298C427.302 328.998 451 272.299 451 212C451 96.2014 363.401 0.00100708 256.001 0.00100708V0.00100708ZM166.002 271.999C124.602 271.999 91.0025 238.4 91.0025 197C91.0025 155.6 124.602 122 166.002 122C207.402 122 241.002 155.6 241.002 197C241.002 238.4 207.402 271.999 166.002 271.999ZM346.001 271.999C304.601 271.999 271.001 238.4 271.001 197C271.001 155.6 304.601 122 346.001 122C387.401 122 421.001 155.6 421.001 197C421.001 238.4 387.401 271.999 346.001 271.999ZM256.001 361.999C231.188 361.999 211.002 382.185 211.002 406.999C211.002 431.812 231.188 451.998 256.001 451.998C280.815 451.998 301.001 431.812 301.001 406.999C301.001 382.185 280.815 361.999 256.001 361.999ZM500.745 366.379L442.825 351.379C434.694 349.254 426.584 354.257 424.545 362.146L394.545 478.249C392.494 486.276 397.299 494.45 405.326 496.53L463.538 511.53C471.746 513.582 479.763 508.671 481.819 500.719L511.526 384.616C513.577 376.604 508.773 368.445 500.745 366.379ZM87.7465 362.146C85.6665 354.148 77.6096 349.27 69.4656 351.365L11.2529 366.365C3.25499 368.43 -1.57898 376.604 0.472008 384.617L30.1788 500.72C31.1748 504.573 33.6358 507.883 37.0638 509.905C40.3478 511.855 44.3788 512.552 48.4597 511.531L106.643 496.531C114.67 494.451 119.475 486.277 117.424 478.25L87.7465 362.146Z" fill="url(#paint1_linear)"/>
<defs>
<linearGradient id="paint0_linear" x1="256.205" y1="511.999" x2="256.205" y2="107.001" gradientUnits="userSpaceOnUse">
<stop stop-color="#FFBEF9"/>
<stop offset="1" stop-color="#FFF1FF"/>
</linearGradient>
<linearGradient id="paint1_linear" x1="256" y1="511.997" x2="256" y2="350.246" gradientUnits="userSpaceOnUse">
<stop stop-color="#A93AFF"/>
<stop offset="1" stop-color="#FF81FF"/>
</linearGradient>
</defs>
</svg>
