<svg width="512" height="512" viewBox="0 0 512 512" fill="none" xmlns="http://www.w3.org/2000/svg">
<g clip-path="url(#clip0)">
<path d="M255.168 0L25.808 133.404V378.603L256.747 512L486.192 378.596V133.397L255.168 0Z" fill="#77767E"/>
<path d="M486.192 133.397L256.747 266.801L62.482 154.586L25.808 133.404L255.168 0L408.906 56.421L486.192 133.397Z" fill="#ACABB1"/>
<path d="M486.192 133.397V378.596L256.747 512V266.801L324.828 227.217L411.922 136.652L486.192 133.397Z" fill="#77767E"/>
<path d="M256.747 266.801V512L25.808 378.603V133.404L115.987 125.597L256.747 266.801Z" fill="#898890"/>
<path d="M448.208 209.068C463.656 200.149 476.206 200.134 476.233 209.068C476.258 217.983 463.748 232.436 448.3 241.355C432.852 250.274 420.302 250.289 420.275 241.375C420.25 232.441 432.76 217.988 448.208 209.068Z" fill="#898890"/>
<path d="M378.78 291.805C389.319 285.72 397.899 285.923 397.917 292.274C397.935 298.625 389.384 308.718 378.845 314.802C368.288 320.897 359.726 320.684 359.708 314.333C359.69 307.982 368.223 297.899 378.78 291.805Z" fill="#57565C"/>
<path d="M168.992 303.023C179.531 309.108 188.065 319.191 188.046 325.542C188.028 331.893 179.465 332.086 168.926 326.001C158.37 319.906 149.836 309.843 149.854 303.493C149.873 297.141 158.436 296.928 168.992 303.023Z" fill="#77767E"/>
<path d="M56.732 334.874C65.809 340.959 73.16 351.042 73.144 357.393C73.128 363.744 65.753 363.937 56.676 357.852C47.583 351.757 40.233 341.694 40.249 335.344C40.266 328.992 47.641 328.779 56.732 334.874Z" fill="#77767E"/>
<path d="M207.872 422.069C208.956 422.695 210.062 423.422 211.182 424.251C220.858 431.438 227.856 443.518 226.802 451.247C225.87 458.1 218.96 459.258 210.681 454.479C209.598 453.854 208.491 453.126 207.372 452.297C197.696 445.11 190.698 433.03 191.752 425.281C192.683 418.446 199.594 417.289 207.872 422.069Z" fill="#57565C"/>
<path d="M64.576 211.32C65.064 211.601 65.562 211.929 66.066 212.302C70.422 215.537 73.573 220.976 73.098 224.455C72.679 227.54 69.567 228.062 65.84 225.91C65.353 225.629 64.854 225.301 64.35 224.928C59.994 221.693 56.843 216.254 57.318 212.765C57.738 209.689 60.848 209.169 64.576 211.32Z" fill="#57565C"/>
<path d="M91.693 297.508C96.568 300.322 100.518 307.76 100.501 314.111C100.483 320.442 96.503 323.301 91.629 320.486C86.754 317.672 82.821 310.245 82.839 303.914C82.856 297.562 86.819 294.694 91.693 297.508Z" fill="#ACABB1"/>
<path d="M312.004 410.494C321.376 405.083 328.994 405.801 329.012 412.093C329.03 418.404 321.441 427.903 312.069 433.314C302.697 438.726 295.095 437.996 295.078 431.685C295.059 425.393 302.632 415.905 312.004 410.494Z" fill="#57565C"/>
<path d="M436.799 325.343C446.171 319.932 453.772 320.562 453.789 326.755C453.807 332.948 446.234 342.358 436.862 347.769C427.49 353.18 419.872 352.54 419.854 346.347C419.837 340.154 427.427 330.754 436.799 325.343Z" fill="#898890"/>
<path d="M295.88 300.139C300.875 297.255 304.92 298.89 304.934 303.801C304.948 308.692 300.926 314.986 295.931 317.87C290.953 320.744 286.908 319.108 286.895 314.217C286.88 309.306 290.903 303.012 295.88 300.139Z" fill="#898890"/>
</g>
<defs>
<clipPath id="clip0">
<rect width="512" height="512" fill="white"/>
</clipPath>
</defs>
</svg>
