<svg width="512" height="512" viewBox="0 0 512 512" fill="none" xmlns="http://www.w3.org/2000/svg">
<path d="M438.4 329.6C438.4 430.933 356.267 512 256 512C155.733 512 73.6 430.933 73.6 329.6C73.6 228.267 256 0 256 0C256 0 438.4 229.333 438.4 329.6Z" fill="#84DBFF"/>
<path d="M256 464C182.4 464 121.6 404.267 121.6 329.6C121.6 321.067 129.067 313.6 137.6 313.6C146.133 313.6 153.6 321.067 153.6 329.6C153.6 386.133 199.467 432 256 432C264.533 432 272 439.467 272 448C272 456.533 264.533 464 256 464Z" fill="white"/>
</svg>
