<svg width="512" height="512" viewBox="0 0 512 512" fill="none" xmlns="http://www.w3.org/2000/svg">
<path d="M369.023 315.355V62.1602C369.023 27.8281 341.195 0 306.867 0C272.535 0 244.707 27.8281 244.707 62.1602V315.355C216.895 334.922 198.723 367.266 198.723 403.855C198.723 463.582 247.141 512 306.867 512C366.594 512 415.012 463.582 415.012 403.855C415.012 367.266 396.836 334.922 369.023 315.355V315.355Z" fill="#D8D8D8"/>
<path d="M306.867 476.582C265.684 476.582 232.18 443.074 232.18 401.895C232.18 370.621 251.613 342.777 280.773 331.914V62.1602C280.773 47.7695 292.477 36.0664 306.867 36.0664C321.254 36.0664 332.961 47.7695 332.961 62.1602V331.914C362.117 342.773 381.555 370.617 381.555 401.891C381.555 443.074 348.051 476.582 306.867 476.582V476.582Z" fill="#F3E8D7"/>
<path d="M280.77 298.848V331.914C251.613 342.777 232.176 370.621 232.176 401.895C232.176 443.074 265.684 476.582 306.867 476.582C348.047 476.582 381.555 443.074 381.555 401.895C381.555 370.621 362.117 342.777 332.961 331.914V298.848H280.77Z" fill="#33D8DD"/>
<path d="M332.961 331.914V298.848H280.773V331.914C280.773 331.914 316.848 348.652 316.848 401.895C316.848 431.492 299.539 457.125 274.512 469.203C284.305 473.93 295.281 476.582 306.867 476.582C348.047 476.582 381.555 443.074 381.555 401.895C381.555 370.617 362.117 342.777 332.961 331.914V331.914Z" fill="#33D8DD"/>
<path d="M455.121 180.219H410.297C406.027 180.219 402.57 176.758 402.57 172.492C402.57 168.227 406.027 164.766 410.297 164.766H455.121C459.387 164.766 462.844 168.227 462.844 172.492C462.848 176.758 459.387 180.219 455.121 180.219V180.219Z" fill="#0D6E9A"/>
<path d="M430.648 117.598H410.297C406.027 117.598 402.57 114.137 402.57 109.871C402.57 105.605 406.027 102.145 410.297 102.145H430.648C434.914 102.145 438.375 105.605 438.375 109.871C438.375 114.137 434.914 117.598 430.648 117.598Z" fill="#0D6E9A"/>
<path d="M437.859 54.9766H410.297C406.027 54.9766 402.57 51.5156 402.57 47.25C402.57 42.9844 406.027 39.5234 410.297 39.5234H437.859C442.129 39.5234 445.586 42.9844 445.586 47.25C445.586 51.5156 442.129 54.9766 437.859 54.9766Z" fill="#0D6E9A"/>
<path d="M437.859 305.461H410.297C406.027 305.461 402.57 302 402.57 297.734C402.57 293.465 406.027 290.008 410.297 290.008H437.859C442.129 290.008 445.586 293.465 445.586 297.734C445.586 302 442.129 305.461 437.859 305.461Z" fill="#0D6E9A"/>
<path d="M430.648 242.84H410.297C406.027 242.84 402.57 239.379 402.57 235.113C402.57 230.848 406.027 227.387 410.297 227.387H430.648C434.914 227.387 438.375 230.848 438.375 235.113C438.375 239.379 434.914 242.84 430.648 242.84Z" fill="#0D6E9A"/>
<path d="M200.68 153.895L187.492 146.512L197.188 142.539C201.137 140.922 203.027 136.41 201.41 132.465C199.793 128.516 195.277 126.625 191.332 128.242L170.27 136.871L142.629 121.395L170.27 105.918L191.332 114.547C192.293 114.938 193.281 115.125 194.258 115.125C197.301 115.125 200.188 113.312 201.41 110.324C203.027 106.375 201.137 101.863 197.191 100.246L187.496 96.2734L200.68 88.8906C204.402 86.8047 205.73 82.0977 203.645 78.375C201.563 74.6523 196.855 73.3242 193.129 75.4062L179.945 82.7891L181.625 72.4492C182.312 68.2344 179.453 64.2656 175.238 63.582C171.031 62.8945 167.059 65.7578 166.375 69.9688L162.723 92.4336L134.543 108.215V75.918L152.359 61.7539C155.703 59.1016 156.258 54.2383 153.602 50.8984C150.949 47.5586 146.086 47.0039 142.746 49.6562L134.543 56.1797V41.0664C134.543 36.8008 131.086 33.3398 126.816 33.3398C122.551 33.3398 119.09 36.8008 119.09 41.0664V56.1797L110.887 49.6602C107.547 47.0039 102.687 47.5586 100.031 50.8984C97.3789 54.2422 97.9336 59.1016 101.273 61.7578L119.09 75.918V108.215L90.9102 92.4336L87.2578 69.9688C86.5742 65.7578 82.6055 62.8945 78.3945 63.582C74.1797 64.2656 71.3203 68.2344 72.0078 72.4492L73.6875 82.7891L60.5039 75.4062C56.7812 73.3242 52.0703 74.6523 49.9883 78.375C47.9023 82.0977 49.2305 86.8086 52.9531 88.8906L66.1406 96.2734L56.4414 100.246C52.4961 101.863 50.6055 106.375 52.2227 110.324C53.4453 113.312 56.332 115.125 59.375 115.125C60.3516 115.125 61.3437 114.938 62.3008 114.547L83.3633 105.918L111.004 121.395L83.3633 136.871L62.3008 128.242C58.3477 126.625 53.8398 128.516 52.2227 132.465C50.6055 136.41 52.4961 140.926 56.4414 142.539L66.1367 146.512L52.9531 153.895C49.2305 155.98 47.9023 160.688 49.9844 164.41C51.4023 166.941 54.0273 168.363 56.7344 168.363C58.0117 168.363 59.3086 168.047 60.5039 167.379L73.6875 159.996L72.0078 170.34C71.3203 174.551 74.1797 178.52 78.3945 179.207C78.8125 179.273 79.2305 179.309 79.6406 179.309C83.3633 179.309 86.6445 176.609 87.2578 172.82L90.9102 150.352L119.09 134.574V166.871L101.27 181.031C97.9297 183.688 97.375 188.547 100.031 191.887C102.684 195.23 107.547 195.785 110.887 193.129L119.09 186.609V201.723C119.09 205.988 122.547 209.445 126.816 209.445C131.082 209.445 134.543 205.988 134.543 201.723V186.609L142.746 193.129C144.168 194.258 145.859 194.809 147.547 194.809C149.82 194.809 152.074 193.809 153.598 191.887C156.254 188.547 155.699 183.688 152.359 181.031L134.539 166.871V134.574L162.719 150.352L166.371 172.82C166.984 176.613 170.266 179.309 173.988 179.309C174.398 179.309 174.816 179.273 175.234 179.207C179.449 178.52 182.309 174.551 181.625 170.34L179.941 159.996L193.129 167.379C194.32 168.047 195.617 168.363 196.895 168.363C199.602 168.363 202.227 166.941 203.645 164.41C205.73 160.688 204.402 155.98 200.68 153.895Z" fill="#33D8DD"/>
</svg>
