<svg width="512" height="512" viewBox="0 0 512 512" fill="none" xmlns="http://www.w3.org/2000/svg">
<path d="M126.145 38.5312C130.539 57.9766 154.133 65.6406 169.113 52.4922C171.645 50.2695 175.438 53.0234 174.105 56.1172C166.227 74.4297 180.809 94.5 200.66 92.668C204.016 92.3594 205.465 96.8125 202.566 98.5352C185.43 108.723 185.43 133.531 202.566 143.715C205.465 145.437 204.016 149.891 200.66 149.582C180.809 147.75 166.227 167.82 174.105 186.133C175.438 189.23 171.645 191.98 169.113 189.758C154.133 176.609 130.535 184.277 126.145 203.719C125.402 207.008 120.719 207.008 119.977 203.719C115.586 184.273 91.9922 176.609 77.0078 189.758C74.4766 191.98 70.6836 189.23 72.0156 186.133C79.8945 167.82 65.3125 147.75 45.4609 149.582C42.1055 149.891 40.6563 145.437 43.5547 143.715C60.6914 133.531 60.6914 108.723 43.5547 98.5352C40.6602 96.8125 42.1055 92.3594 45.4609 92.668C65.3125 94.5 79.8945 74.4297 72.0156 56.1172C70.6836 53.0234 74.4766 50.2695 77.0078 52.4922C91.9922 65.6406 115.586 57.9766 119.977 38.5312C120.719 35.2422 125.402 35.2422 126.145 38.5312Z" fill="#FD8F31"/>
<path d="M202.566 143.715C185.43 133.531 185.43 108.723 202.566 98.5352C205.465 96.8164 204.016 92.3594 200.66 92.6719C180.812 94.5039 166.23 74.4297 174.105 56.1172C175.437 53.0234 171.648 50.2695 169.113 52.4922C154.133 65.6445 130.539 57.9766 126.145 38.5312C125.402 35.2422 120.719 35.2422 119.977 38.5312C118.352 45.7227 114.102 51.293 108.633 54.8086C128.031 70.3984 140.457 94.3047 140.457 121.129C140.457 147.949 128.031 171.859 108.633 187.449C114.102 190.961 118.352 196.535 119.977 203.723C120.719 207.012 125.406 207.012 126.145 203.723C130.539 184.277 154.133 176.613 169.113 189.762C171.648 191.984 175.437 189.234 174.105 186.137C166.23 167.824 180.812 147.754 200.66 149.586C204.016 149.895 205.465 145.437 202.566 143.715Z" fill="#FF7F1F"/>
<path d="M157.934 121.125C157.934 140.387 142.32 155.996 123.059 155.996C103.801 155.996 88.1875 140.387 88.1875 121.125C88.1875 101.867 103.801 86.2539 123.059 86.2539C142.32 86.2539 157.934 101.867 157.934 121.125Z" fill="#FCCF3F"/>
<path d="M376.012 315.355V62.1602C376.012 27.8281 348.18 0 313.852 0C279.52 0 251.691 27.8281 251.691 62.1602V315.355C223.879 334.922 205.707 367.266 205.707 403.855C205.707 463.582 254.125 512 313.852 512C373.578 512 421.996 463.582 421.996 403.855C421.996 367.266 403.82 334.922 376.012 315.355V315.355Z" fill="#D8D8D8"/>
<path d="M313.852 476.582C272.668 476.582 239.164 443.074 239.164 401.895C239.164 370.621 258.598 342.777 287.758 331.914V62.1602C287.758 47.7695 299.461 36.0664 313.852 36.0664C328.238 36.0664 339.945 47.7695 339.945 62.1602V331.914C369.102 342.773 388.539 370.617 388.539 401.891C388.539 443.074 355.035 476.582 313.852 476.582V476.582Z" fill="#F3E8D7"/>
<path d="M287.758 109.871V331.914C258.598 342.773 239.164 370.617 239.164 401.891C239.164 443.074 272.668 476.578 313.852 476.578C355.035 476.578 388.539 443.074 388.539 401.891C388.539 370.617 369.102 342.773 339.945 331.914V109.871H287.758Z" fill="#E5394B"/>
<path d="M462.105 180.219H417.281C413.012 180.219 409.555 176.758 409.555 172.492C409.555 168.227 413.012 164.766 417.281 164.766H462.105C466.371 164.766 469.832 168.227 469.832 172.492C469.832 176.758 466.371 180.219 462.105 180.219V180.219Z" fill="#0D6E9A"/>
<path d="M437.633 117.598H417.281C413.012 117.598 409.555 114.137 409.555 109.871C409.555 105.605 413.012 102.145 417.281 102.145H437.633C441.898 102.145 445.359 105.605 445.359 109.871C445.359 114.137 441.898 117.598 437.633 117.598Z" fill="#0D6E9A"/>
<path d="M444.844 54.9766H417.281C413.012 54.9766 409.555 51.5156 409.555 47.25C409.555 42.9844 413.012 39.5234 417.281 39.5234H444.844C449.113 39.5234 452.57 42.9844 452.57 47.25C452.57 51.5156 449.113 54.9766 444.844 54.9766Z" fill="#0D6E9A"/>
<path d="M444.844 305.461H417.281C413.012 305.461 409.555 302 409.555 297.734C409.555 293.465 413.012 290.008 417.281 290.008H444.844C449.113 290.008 452.57 293.465 452.57 297.734C452.57 302 449.113 305.461 444.844 305.461Z" fill="#0D6E9A"/>
<path d="M437.633 242.84H417.281C413.012 242.84 409.555 239.379 409.555 235.113C409.555 230.848 413.012 227.387 417.281 227.387H437.633C441.898 227.387 445.359 230.848 445.359 235.113C445.359 239.379 441.898 242.84 437.633 242.84Z" fill="#0D6E9A"/>
<path d="M339.945 331.914V109.871H287.758V331.914C287.758 331.914 323.832 348.652 323.832 401.891C323.832 431.492 306.523 457.125 281.496 469.203C291.289 473.93 302.266 476.578 313.848 476.578C355.031 476.578 388.539 443.074 388.539 401.891C388.539 370.617 369.102 342.777 339.945 331.914V331.914Z" fill="#E5394B"/>
</svg>
